<?xml version="1.0" encoding="iso-8859-1"?>
<!-- Generator: Adobe Illustrator 21.0.0, SVG Export Plug-In . SVG Version: 6.00 Build 0)  -->
<svg version="1.1" id="Layer_1" xmlns="http://www.w3.org/2000/svg" xmlns:xlink="http://www.w3.org/1999/xlink" x="0px" y="0px"
	 viewBox="0 0 100.353 100.353" style="enable-background:new 0 0 100.353 100.353;" xml:space="preserve">
<g>
	<path style="fill:#231F20;" d="M7.169,100c-0.371,0-0.743-0.141-1.027-0.424c-0.57-0.567-0.573-1.489-0.006-2.06l47.381-47.652
		L6.139,2.486c-0.569-0.569-0.569-1.491,0-2.06c0.569-0.568,1.49-0.568,2.059,0l48.405,48.405c0.568,0.567,0.569,1.487,0.003,2.057
		L8.201,99.57C7.918,99.856,7.543,100,7.169,100z"/>
	<path style="fill:#231F20;" d="M44.427,100c-0.371,0-0.743-0.141-1.027-0.424c-0.57-0.567-0.573-1.489-0.006-2.06l47.381-47.652
		L43.397,2.486c-0.569-0.569-0.569-1.491,0-2.06c0.569-0.568,1.49-0.568,2.059,0l48.405,48.405c0.567,0.567,0.569,1.487,0.003,2.057
		L45.459,99.57C45.175,99.856,44.801,100,44.427,100z"/>
</g>
</svg>
